<?xml version="1.0" encoding="UTF-8" standalone="no"?>
<!DOCTYPE svg PUBLIC "-//W3C//DTD SVG 1.1//EN" "http://www.w3.org/Graphics/SVG/1.1/DTD/svg11.dtd">
<svg width="100%" height="100%" viewBox="0 0 3169 1189" version="1.1" xmlns="http://www.w3.org/2000/svg" xmlns:xlink="http://www.w3.org/1999/xlink" xml:space="preserve" style="fill-rule:evenodd;clip-rule:evenodd;stroke-linejoin:round;stroke-miterlimit:1.41421;">
    <g transform="matrix(1,0,0,1,-169.883,-914.999)">
        <g id="M" transform="matrix(1,0,0,1,-166.38,252.708)">
            <g transform="matrix(1,0,0,1,-110.044,-250.946)">
                <path d="M717.163,1132.35C717.163,1011.42 815.342,913.237 936.272,913.237C1057.2,913.237 1155.38,1011.42 1155.38,1132.35C1155.38,1135.06 1155.33,1137.75 1155.23,1140.44L1155.23,1649.24L987.871,1649.24L987.871,1132.35L988.018,1132.35C988.018,1103.79 964.831,1080.6 936.272,1080.6C907.712,1080.6 884.526,1103.79 884.525,1132.35L884.525,1390.79L717.163,1390.79L717.163,1132.35Z" style="fill:rgb(0,240,228);"/>
            </g>
            <g transform="matrix(1,0,0,1,-110.044,-250.946)">
                <path d="M717.163,1132.35C717.162,1103.79 693.975,1080.6 665.416,1080.6C636.857,1080.6 613.67,1103.79 613.669,1132.35L613.669,1649.24L446.307,1649.24L446.307,1132.35C446.307,1011.42 544.487,913.237 665.416,913.237C786.344,913.237 884.523,1011.42 884.525,1132.35L884.525,1390.79L717.163,1390.79L717.163,1132.35Z" style="fill:rgb(0,255,172);"/>
            </g>
            <g transform="matrix(1,0,0,1,-932.287,-250.946)">
                <g transform="matrix(1,0,0,1,822.243,0)">
                    <path d="M884.525,1390.79L717.163,1390.79L717.163,1132.35C717.163,1062.54 749.877,1000.32 800.844,960.223C851.787,1000.3 884.495,1062.49 884.525,1132.35L884.525,1390.79Z" style="fill:rgb(0,255,172);fill-opacity:0.498039;"/>
                </g>
                <g transform="matrix(1,0,0,1,822.243,0)">
                    <path d="M884.525,1390.79L717.163,1390.79L717.163,1132.35C717.163,1062.54 749.877,1000.32 800.844,960.223C851.787,1000.3 884.495,1062.49 884.525,1132.35L884.525,1390.79Z" style="fill:rgb(0,240,228);fill-opacity:0.498039;"/>
                </g>
            </g>
        </g>
        <g transform="matrix(1,0,0,1,27.7803,229.739)">
            <path d="M1002.22,947.53L1002.22,1421.26L916.686,1421.26L916.686,947.53L1002.22,947.53ZM980.84,732.245C992.638,732.246 1002.22,741.823 1002.22,753.62L1002.22,796.37C1002.22,808.168 992.637,817.745 980.84,817.745L938.061,817.745C926.263,817.745 916.686,808.168 916.686,796.37L916.686,753.62C916.686,741.823 926.263,732.246 938.061,732.245L980.84,732.245Z" style="fill:rgb(0,248,200);"/>
        </g>
        <g transform="matrix(0.511045,0,0,3.09508,646.896,-2676.82)">
            <rect x="877.827" y="1175.67" width="167.362" height="222.616" style="fill:rgb(0,248,200);"/>
        </g>
        <g transform="matrix(1,0,0,1,-26.9517,229.739)">
            <path d="M2200.93,1366.56C2159.88,1400.71 2107.12,1421.26 2049.6,1421.26C1918.87,1421.26 1812.74,1315.12 1812.74,1184.39C1812.74,1053.66 1918.87,947.53 2049.6,947.53C2173.05,947.53 2274.58,1042.18 2285.49,1162.81L2286.47,1162.81L2286.47,1421.26L2200.93,1421.26L2200.93,1366.56ZM2049.6,1035.38C2131.84,1035.38 2198.61,1102.15 2198.61,1184.39C2198.61,1266.64 2131.84,1333.41 2049.6,1333.41C1967.36,1333.41 1900.59,1266.64 1900.59,1184.39C1900.59,1102.15 1967.36,1035.38 2049.6,1035.38Z" style="fill:rgb(0,248,200);"/>
        </g>
        <g transform="matrix(1,0,0,1,-270.528,252.708)">
            <path d="M1606.82,1185.2C1618.22,1256.16 1679.79,1310.44 1753.94,1310.44C1794.91,1310.44 1832.05,1293.86 1859,1267.05L1931.92,1317.65C1888.49,1367.08 1824.83,1398.29 1753.94,1398.29C1630.99,1398.29 1529.79,1304.41 1518.18,1184.49L1518.18,1184.47L1518.18,1184.45L1518.15,1184.14L1518.12,1183.77L1518.11,1183.74L1518.11,1183.7L1518.08,1183.39L1518.05,1183.05L1518.04,1183L1518.04,1182.95L1518.01,1182.64L1517.98,1182.33L1517.98,1182.27L1517.97,1182.2L1517.95,1181.89L1517.92,1181.6L1517.91,1181.53L1517.91,1181.45L1517.88,1181.14L1517.86,1180.88L1517.85,1180.79L1517.85,1180.69L1517.82,1180.39L1517.8,1180.14L1517.8,1180.06L1517.79,1179.94L1517.76,1179.64L1517.75,1179.41L1517.74,1179.32L1517.73,1179.19L1517.71,1178.89L1517.69,1178.68L1517.68,1178.58L1517.67,1178.43L1517.65,1178.13L1517.64,1177.94L1517.63,1177.84L1517.62,1177.68L1517.6,1177.38L1517.59,1177.2L1517.58,1177.1L1517.57,1176.93L1517.55,1176.63L1517.54,1176.46L1517.54,1176.36L1517.53,1176.17L1517.51,1175.87L1517.5,1175.72L1517.49,1175.62L1517.48,1175.42L1517.46,1175.12L1517.45,1174.97L1517.45,1174.88L1517.44,1174.66L1517.42,1174.36L1517.41,1174.23L1517.41,1174.13L1517.4,1173.91L1517.38,1173.61L1517.38,1173.48L1517.37,1173.39L1517.36,1173.15L1517.34,1172.85L1517.34,1172.74L1517.33,1172.65L1517.32,1172.39L1517.31,1172.09L1517.3,1171.99L1517.3,1171.9L1517.29,1171.64L1517.28,1171.33L1517.27,1171.24L1517.27,1171.16L1517.26,1170.88L1517.25,1170.58L1517.24,1170.49L1517.24,1170.41L1517.23,1170.12L1517.22,1169.82L1517.22,1169.74L1517.21,1169.67L1517.2,1169.37L1517.19,1169.06L1517.19,1168.99L1517.19,1168.92L1517.18,1168.61L1517.17,1168.3L1517.17,1168.23L1517.17,1168.17L1517.16,1167.85L1517.15,1167.54L1517.15,1167.48L1517.15,1167.43L1517.14,1167.09L1517.13,1166.77L1517.13,1166.73L1517.13,1166.68L1517.12,1166.33L1517.12,1166.01L1517.12,1165.97L1517.11,1165.93L1517.11,1165.56L1517.1,1165.25L1517.1,1165.21L1517.1,1165.18L1517.1,1164.8L1517.09,1164.49L1517.09,1164.46L1517.09,1164.43L1517.09,1164.03L1517.08,1163.72L1517.08,1163.7L1517.08,1163.68L1517.08,1163.25L1517.08,1162.96L1517.08,1162.94L1517.08,1162.93L1517.08,1162.44L1517.07,1162.19L1517.07,1162.18C1517.07,1161.93 1517.07,1161.68 1517.07,1161.42C1517.07,1161.13 1517.07,1160.85 1517.07,1160.56L1517.07,1160.48L1517.08,1160.28L1517.08,1159.89L1517.08,1159.68L1517.08,1159.53L1517.08,1159.37L1517.08,1159.13L1517.09,1158.77L1517.09,1158.58L1517.09,1158.49L1517.09,1158.37L1517.1,1157.72L1517.1,1157.63L1517.1,1157.62C1517.11,1157.33 1517.11,1157.04 1517.12,1156.75L1517.12,1156.69L1517.12,1156.5L1517.13,1156.08L1517.14,1155.88L1517.14,1155.74L1517.14,1155.57L1517.15,1155.32L1517.16,1154.98L1517.16,1154.8L1517.17,1154.69L1517.17,1154.56L1517.19,1153.99L1517.19,1153.85L1517.19,1153.83C1517.2,1153.54 1517.21,1153.25 1517.22,1152.96L1517.22,1152.91L1517.23,1152.73L1517.25,1152.28L1517.25,1152.1L1517.26,1151.97L1517.27,1151.79L1517.28,1151.52L1517.29,1151.21L1517.3,1151.03L1517.3,1150.91L1517.31,1150.76L1517.33,1150.25L1517.34,1150.09L1517.34,1150.05C1517.36,1149.76 1517.37,1149.48 1517.38,1149.19L1517.39,1149.15L1517.39,1148.98L1517.42,1148.49L1517.43,1148.33L1517.43,1148.21L1517.45,1148.03L1517.46,1147.73L1517.48,1147.45L1517.49,1147.28L1517.5,1147.15L1517.51,1146.98L1517.54,1146.52L1517.55,1146.34L1517.55,1146.29C1517.57,1146 1517.59,1145.72 1517.61,1145.43L1517.61,1145.4L1517.62,1145.26L1517.65,1144.72L1517.66,1144.57L1517.67,1144.47L1517.68,1144.29L1517.71,1143.96L1517.73,1143.7L1517.74,1143.54L1517.75,1143.4L1517.76,1143.21L1517.8,1142.79L1517.81,1142.61L1517.82,1142.54C1517.84,1142.26 1517.86,1141.97 1517.88,1141.69L1517.89,1141.67L1517.89,1141.57L1517.95,1140.96L1517.96,1140.84L1517.96,1140.74L1517.98,1140.56L1518.01,1140.21L1518.03,1139.97L1518.05,1139.82L1518.06,1139.67L1518.08,1139.46L1518.12,1139.08L1518.13,1138.89L1518.14,1138.81C1518.17,1138.53 1518.19,1138.25 1518.22,1137.96L1518.22,1137.96L1518.23,1137.93L1518.3,1137.22L1518.31,1137.12L1518.32,1137.04L1518.34,1136.85L1518.37,1136.48L1518.4,1136.26L1518.41,1136.11L1518.43,1135.96L1518.45,1135.73L1518.49,1135.37L1518.51,1135.19L1518.52,1135.1L1518.53,1134.99L1518.61,1134.33L1518.62,1134.26L1518.62,1134.26C1518.65,1133.97 1518.68,1133.69 1518.71,1133.41L1518.72,1133.34L1518.75,1133.16L1518.79,1132.76L1518.82,1132.56L1518.83,1132.42L1518.85,1132.26L1518.88,1132.02L1518.92,1131.68L1518.95,1131.5L1518.96,1131.41L1518.98,1131.28L1519.05,1130.7L1519.07,1130.58L1519.07,1130.56C1519.11,1130.28 1519.14,1130 1519.18,1129.72L1519.19,1129.67L1519.21,1129.49L1519.27,1129.06L1519.3,1128.88L1519.31,1128.75L1519.34,1128.59L1519.37,1128.32L1519.41,1128.01L1519.44,1127.84L1519.45,1127.73L1519.48,1127.58L1519.55,1127.07L1519.57,1126.92L1519.58,1126.89C1519.62,1126.61 1519.66,1126.33 1519.7,1126.05L1519.71,1126.01L1519.73,1125.85L1519.8,1125.37L1519.83,1125.21L1519.85,1125.1L1519.87,1124.93L1519.92,1124.64L1519.96,1124.36L1519.99,1124.19L1520.01,1124.07L1520.03,1123.9L1520.11,1123.44L1520.13,1123.28L1520.14,1123.23C1520.19,1122.95 1520.23,1122.68 1520.28,1122.4L1520.28,1122.37L1520.31,1122.23L1520.39,1121.71L1520.42,1121.57L1520.44,1121.46L1520.47,1121.29L1520.52,1120.98L1520.56,1120.72L1520.59,1120.56L1520.61,1120.43L1520.64,1120.25L1520.72,1119.83L1520.75,1119.65L1520.76,1119.6C1520.81,1119.32 1520.86,1119.04 1520.91,1118.77L1520.91,1118.75L1520.93,1118.65L1521.04,1118.06L1521.06,1117.94L1521.08,1117.85L1521.11,1117.67L1521.18,1117.34L1521.22,1117.1L1521.25,1116.94L1521.28,1116.81L1521.31,1116.61L1521.39,1116.22L1521.42,1116.05L1521.44,1115.98C1521.49,1115.7 1521.54,1115.43 1521.6,1115.15L1521.6,1115.15L1521.61,1115.11L1521.74,1114.44L1521.76,1114.33L1521.78,1114.25L1521.82,1114.07L1521.89,1113.71L1521.93,1113.49L1521.96,1113.35L1521.99,1113.21L1522.04,1112.99L1522.11,1112.63L1522.15,1112.46L1522.16,1112.38L1522.19,1112.27L1522.34,1111.58L1522.34,1111.56L1522.34,1111.56C1522.4,1111.29 1522.46,1111.01 1522.52,1110.74L1522.53,1110.67L1522.57,1110.5L1522.65,1110.11L1522.7,1109.91L1522.73,1109.78L1522.76,1109.63L1522.82,1109.39L1522.89,1109.06L1522.93,1108.89L1522.95,1108.8L1522.98,1108.68L1523.11,1108.08L1523.13,1108L1523.14,1107.99C1523.2,1107.71 1523.26,1107.44 1523.33,1107.16L1523.34,1107.11L1523.38,1106.95L1523.48,1106.53L1523.52,1106.35L1523.55,1106.23L1523.59,1106.08L1523.65,1105.82L1523.72,1105.51L1523.76,1105.34L1523.79,1105.25L1523.82,1105.1L1523.95,1104.58L1523.98,1104.46L1523.99,1104.43C1524.05,1104.16 1524.12,1103.89 1524.19,1103.62L1524.2,1103.58L1524.24,1103.43L1524.35,1102.97L1524.4,1102.8L1524.42,1102.69L1524.46,1102.54L1524.54,1102.26L1524.61,1101.97L1524.65,1101.81L1524.68,1101.71L1524.72,1101.55L1524.84,1101.07L1524.88,1100.94L1524.89,1100.9C1524.96,1100.63 1525.03,1100.36 1525.11,1100.09L1525.11,1100.06L1525.14,1099.94L1525.28,1099.43L1525.32,1099.28L1525.35,1099.18L1525.39,1099.03L1525.48,1098.72L1525.55,1098.45L1525.59,1098.31L1525.62,1098.2L1525.67,1098.02L1525.79,1097.58L1525.83,1097.43L1525.84,1097.39C1525.92,1097.12 1526,1096.85 1526.07,1096.58L1526.08,1096.56L1526.1,1096.49L1526.27,1095.91L1526.3,1095.78L1526.33,1095.69L1526.37,1095.54L1526.47,1095.21L1526.54,1094.96L1526.58,1094.82L1526.61,1094.71L1526.67,1094.51L1526.79,1094.1L1526.84,1093.96L1526.85,1093.9C1526.93,1093.63 1527.01,1093.36 1527.1,1093.09L1527.1,1093.09L1527.1,1093.09L1527.3,1092.41L1527.34,1092.29L1527.36,1092.22L1527.4,1092.08L1527.51,1091.72L1527.59,1091.49L1527.62,1091.36L1527.66,1091.24L1527.73,1091.02L1527.85,1090.64L1527.89,1090.5L1527.91,1090.44C1528.08,1089.9 1528.25,1089.37 1528.42,1088.84L1528.44,1088.78L1528.49,1088.64L1528.61,1088.25L1528.68,1088.04L1528.72,1087.92L1528.76,1087.8L1528.84,1087.56L1528.95,1087.21L1529,1087.07L1529.02,1087L1529.06,1086.87L1529.28,1086.22L1529.28,1086.21L1529.28,1086.21C1529.38,1085.94 1529.47,1085.67 1529.56,1085.4L1529.57,1085.36L1529.61,1085.23L1529.76,1084.8L1529.83,1084.61L1529.86,1084.5L1529.91,1084.38L1530,1084.12L1530.11,1083.79L1530.16,1083.65L1530.18,1083.58L1530.23,1083.43L1530.44,1082.86L1530.45,1082.8L1530.46,1082.79C1530.55,1082.52 1530.65,1082.26 1530.74,1081.99L1530.75,1081.96L1530.79,1081.85L1530.96,1081.38L1531.03,1081.2L1531.06,1081.11L1531.1,1080.99L1531.21,1080.7L1531.32,1080.39L1531.37,1080.27L1531.39,1080.18L1531.45,1080.02L1531.65,1079.5L1531.67,1079.42L1531.68,1079.4C1531.78,1079.13 1531.88,1078.87 1531.98,1078.6L1531.99,1078.58L1532.01,1078.51L1532.21,1077.98L1532.28,1077.82L1532.3,1077.74L1532.35,1077.62L1532.47,1077.31L1532.58,1077.02L1532.62,1076.9L1532.65,1076.82L1532.73,1076.63L1532.91,1076.15L1532.94,1076.06L1532.95,1076.04C1533.06,1075.77 1533.16,1075.5 1533.27,1075.23L1533.27,1075.23L1533.28,1075.22L1533.51,1074.61L1533.57,1074.46L1533.6,1074.39L1533.64,1074.28L1533.78,1073.94L1533.89,1073.67L1533.93,1073.56L1533.96,1073.47L1534.05,1073.27L1534.23,1072.82L1534.26,1072.73L1534.28,1072.7C1534.49,1072.17 1534.7,1071.65 1534.92,1071.12L1534.94,1071.07L1534.99,1070.97L1535.14,1070.59L1535.25,1070.34L1535.29,1070.25L1535.32,1070.16L1535.42,1069.93L1535.59,1069.51L1535.63,1069.42L1535.65,1069.38C1535.87,1068.86 1536.09,1068.34 1536.32,1067.81L1536.33,1067.78L1536.37,1067.69L1536.55,1067.28L1536.65,1067.04L1536.69,1066.96L1536.73,1066.87L1536.84,1066.62L1537.01,1066.23L1537.05,1066.14L1537.07,1066.1C1537.3,1065.57 1537.53,1065.05 1537.77,1064.53L1537.77,1064.51L1537.8,1064.44L1538.01,1063.99L1538.11,1063.76L1538.14,1063.69L1538.18,1063.61L1538.31,1063.33L1538.48,1062.96L1538.51,1062.88L1538.53,1062.84C1538.77,1062.31 1539.02,1061.79 1539.26,1061.27L1539.26,1061.26L1539.28,1061.24L1539.52,1060.72L1539.62,1060.51L1539.64,1060.45L1539.68,1060.38L1539.82,1060.07L1539.99,1059.72L1540.02,1059.65L1540.05,1059.6C1540.42,1058.83 1540.79,1058.06 1541.17,1057.29L1541.19,1057.24L1541.22,1057.18L1541.39,1056.84L1541.55,1056.51L1541.58,1056.44L1541.61,1056.4C1541.99,1055.63 1542.38,1054.86 1542.77,1054.09L1542.78,1054.06L1542.81,1054.01L1543,1053.63L1543.16,1053.32L1543.19,1053.27L1543.21,1053.22C1543.61,1052.45 1544.01,1051.68 1544.41,1050.92L1544.42,1050.9L1544.44,1050.87L1544.66,1050.45L1544.82,1050.16L1544.84,1050.12L1544.86,1050.08C1584.74,975.415 1663.45,924.561 1753.94,924.561C1884.67,924.561 1990.8,1030.7 1990.8,1161.42C1990.8,1169.45 1990.4,1177.38 1989.62,1185.2L1901.06,1185.2L1606.82,1185.2ZM1889.57,1099.67C1866.08,1048.21 1814.16,1012.41 1753.94,1012.41C1693.72,1012.41 1641.79,1048.21 1618.3,1099.67L1889.57,1099.67Z" style="fill:rgb(0,248,200);"/>
        </g>
        <g transform="matrix(1,0,0,1,1347.19,252.708)">
            <path d="M1606.82,1185.2C1618.22,1256.16 1679.79,1310.44 1753.94,1310.44C1794.91,1310.44 1832.05,1293.86 1859,1267.05L1931.92,1317.65C1888.49,1367.08 1824.83,1398.29 1753.94,1398.29C1630.99,1398.29 1529.79,1304.41 1518.18,1184.49L1518.18,1184.47L1518.18,1184.45L1518.15,1184.14L1518.12,1183.77L1518.11,1183.74L1518.11,1183.7L1518.08,1183.39L1518.05,1183.05L1518.04,1183L1518.04,1182.95L1518.01,1182.64L1517.98,1182.33L1517.98,1182.27L1517.97,1182.2L1517.95,1181.89L1517.92,1181.6L1517.91,1181.53L1517.91,1181.45L1517.88,1181.14L1517.86,1180.88L1517.85,1180.79L1517.85,1180.69L1517.82,1180.39L1517.8,1180.14L1517.8,1180.06L1517.79,1179.94L1517.76,1179.64L1517.75,1179.41L1517.74,1179.32L1517.73,1179.19L1517.71,1178.89L1517.69,1178.68L1517.68,1178.58L1517.67,1178.43L1517.65,1178.13L1517.64,1177.94L1517.63,1177.84L1517.62,1177.68L1517.6,1177.38L1517.59,1177.2L1517.58,1177.1L1517.57,1176.93L1517.55,1176.63L1517.54,1176.46L1517.54,1176.36L1517.53,1176.17L1517.51,1175.87L1517.5,1175.72L1517.49,1175.62L1517.48,1175.42L1517.46,1175.12L1517.45,1174.97L1517.45,1174.88L1517.44,1174.66L1517.42,1174.36L1517.41,1174.23L1517.41,1174.13L1517.4,1173.91L1517.38,1173.61L1517.38,1173.48L1517.37,1173.39L1517.36,1173.15L1517.34,1172.85L1517.34,1172.74L1517.33,1172.65L1517.32,1172.39L1517.31,1172.09L1517.3,1171.99L1517.3,1171.9L1517.29,1171.64L1517.28,1171.33L1517.27,1171.24L1517.27,1171.16L1517.26,1170.88L1517.25,1170.58L1517.24,1170.49L1517.24,1170.41L1517.23,1170.12L1517.22,1169.82L1517.22,1169.74L1517.21,1169.67L1517.2,1169.37L1517.19,1169.06L1517.19,1168.99L1517.19,1168.92L1517.18,1168.61L1517.17,1168.3L1517.17,1168.23L1517.17,1168.17L1517.16,1167.85L1517.15,1167.54L1517.15,1167.48L1517.15,1167.43L1517.14,1167.09L1517.13,1166.77L1517.13,1166.73L1517.13,1166.68L1517.12,1166.33L1517.12,1166.01L1517.12,1165.97L1517.11,1165.93L1517.11,1165.56L1517.1,1165.25L1517.1,1165.21L1517.1,1165.18L1517.1,1164.8L1517.09,1164.49L1517.09,1164.46L1517.09,1164.43L1517.09,1164.03L1517.08,1163.72L1517.08,1163.7L1517.08,1163.68L1517.08,1163.25L1517.08,1162.96L1517.08,1162.94L1517.08,1162.93L1517.08,1162.44L1517.07,1162.19L1517.07,1162.18C1517.07,1161.93 1517.07,1161.68 1517.07,1161.42C1517.07,1161.13 1517.07,1160.85 1517.07,1160.56L1517.07,1160.48L1517.08,1160.28L1517.08,1159.89L1517.08,1159.68L1517.08,1159.53L1517.08,1159.37L1517.08,1159.13L1517.09,1158.77L1517.09,1158.58L1517.09,1158.49L1517.09,1158.37L1517.1,1157.72L1517.1,1157.63L1517.1,1157.62C1517.11,1157.33 1517.11,1157.04 1517.12,1156.75L1517.12,1156.69L1517.12,1156.5L1517.13,1156.08L1517.14,1155.88L1517.14,1155.74L1517.14,1155.57L1517.15,1155.32L1517.16,1154.98L1517.16,1154.8L1517.17,1154.69L1517.17,1154.56L1517.19,1153.99L1517.19,1153.85L1517.19,1153.83C1517.2,1153.54 1517.21,1153.25 1517.22,1152.96L1517.22,1152.91L1517.23,1152.73L1517.25,1152.28L1517.25,1152.1L1517.26,1151.97L1517.27,1151.79L1517.28,1151.52L1517.29,1151.21L1517.3,1151.03L1517.3,1150.91L1517.31,1150.76L1517.33,1150.25L1517.34,1150.09L1517.34,1150.05C1517.36,1149.76 1517.37,1149.48 1517.38,1149.19L1517.39,1149.15L1517.39,1148.98L1517.42,1148.49L1517.43,1148.33L1517.43,1148.21L1517.45,1148.03L1517.46,1147.73L1517.48,1147.45L1517.49,1147.28L1517.5,1147.15L1517.51,1146.98L1517.54,1146.52L1517.55,1146.34L1517.55,1146.29C1517.57,1146 1517.59,1145.72 1517.61,1145.43L1517.61,1145.4L1517.62,1145.26L1517.65,1144.72L1517.66,1144.57L1517.67,1144.47L1517.68,1144.29L1517.71,1143.96L1517.73,1143.7L1517.74,1143.54L1517.75,1143.4L1517.76,1143.21L1517.8,1142.79L1517.81,1142.61L1517.82,1142.54C1517.84,1142.26 1517.86,1141.97 1517.88,1141.69L1517.89,1141.67L1517.89,1141.57L1517.95,1140.96L1517.96,1140.84L1517.96,1140.74L1517.98,1140.56L1518.01,1140.21L1518.03,1139.97L1518.05,1139.82L1518.06,1139.67L1518.08,1139.46L1518.12,1139.08L1518.13,1138.89L1518.14,1138.81C1518.17,1138.53 1518.19,1138.25 1518.22,1137.96L1518.22,1137.96L1518.23,1137.93L1518.3,1137.22L1518.31,1137.12L1518.32,1137.04L1518.34,1136.85L1518.37,1136.48L1518.4,1136.26L1518.41,1136.11L1518.43,1135.96L1518.45,1135.73L1518.49,1135.37L1518.51,1135.19L1518.52,1135.1L1518.53,1134.99L1518.61,1134.33L1518.62,1134.26L1518.62,1134.26C1518.65,1133.97 1518.68,1133.69 1518.71,1133.41L1518.72,1133.34L1518.75,1133.16L1518.79,1132.76L1518.82,1132.56L1518.83,1132.42L1518.85,1132.26L1518.88,1132.02L1518.92,1131.68L1518.95,1131.5L1518.96,1131.41L1518.98,1131.28L1519.05,1130.7L1519.07,1130.58L1519.07,1130.56C1519.11,1130.28 1519.14,1130 1519.18,1129.72L1519.19,1129.67L1519.21,1129.49L1519.27,1129.06L1519.3,1128.88L1519.31,1128.75L1519.34,1128.59L1519.37,1128.32L1519.41,1128.01L1519.44,1127.84L1519.45,1127.73L1519.48,1127.58L1519.55,1127.07L1519.57,1126.92L1519.58,1126.89C1519.62,1126.61 1519.66,1126.33 1519.7,1126.05L1519.71,1126.01L1519.73,1125.85L1519.8,1125.37L1519.83,1125.21L1519.85,1125.1L1519.87,1124.93L1519.92,1124.64L1519.96,1124.36L1519.99,1124.19L1520.01,1124.07L1520.03,1123.9L1520.11,1123.44L1520.13,1123.28L1520.14,1123.23C1520.19,1122.95 1520.23,1122.68 1520.28,1122.4L1520.28,1122.37L1520.31,1122.23L1520.39,1121.71L1520.42,1121.57L1520.44,1121.46L1520.47,1121.29L1520.52,1120.98L1520.56,1120.72L1520.59,1120.56L1520.61,1120.43L1520.64,1120.25L1520.72,1119.83L1520.75,1119.65L1520.76,1119.6C1520.81,1119.32 1520.86,1119.04 1520.91,1118.77L1520.91,1118.75L1520.93,1118.65L1521.04,1118.06L1521.06,1117.94L1521.08,1117.85L1521.11,1117.67L1521.18,1117.34L1521.22,1117.1L1521.25,1116.94L1521.28,1116.81L1521.31,1116.61L1521.39,1116.22L1521.42,1116.05L1521.44,1115.98C1521.49,1115.7 1521.54,1115.43 1521.6,1115.15L1521.6,1115.15L1521.61,1115.11L1521.74,1114.44L1521.76,1114.33L1521.78,1114.25L1521.82,1114.07L1521.89,1113.71L1521.93,1113.49L1521.96,1113.35L1521.99,1113.21L1522.04,1112.99L1522.11,1112.63L1522.15,1112.46L1522.16,1112.38L1522.19,1112.27L1522.34,1111.58L1522.34,1111.56L1522.34,1111.56C1522.4,1111.29 1522.46,1111.01 1522.52,1110.74L1522.53,1110.67L1522.57,1110.5L1522.65,1110.11L1522.7,1109.91L1522.73,1109.78L1522.76,1109.63L1522.82,1109.39L1522.89,1109.06L1522.93,1108.89L1522.95,1108.8L1522.98,1108.68L1523.11,1108.08L1523.13,1108L1523.14,1107.99C1523.2,1107.71 1523.26,1107.44 1523.33,1107.16L1523.34,1107.11L1523.38,1106.95L1523.48,1106.53L1523.52,1106.35L1523.55,1106.23L1523.59,1106.08L1523.65,1105.82L1523.72,1105.51L1523.76,1105.34L1523.79,1105.25L1523.82,1105.1L1523.95,1104.58L1523.98,1104.46L1523.99,1104.43C1524.05,1104.16 1524.12,1103.89 1524.19,1103.62L1524.2,1103.58L1524.24,1103.43L1524.35,1102.97L1524.4,1102.8L1524.42,1102.69L1524.46,1102.54L1524.54,1102.26L1524.61,1101.97L1524.65,1101.81L1524.68,1101.71L1524.72,1101.55L1524.84,1101.07L1524.88,1100.94L1524.89,1100.9C1524.96,1100.63 1525.03,1100.36 1525.11,1100.09L1525.11,1100.06L1525.14,1099.94L1525.28,1099.43L1525.32,1099.28L1525.35,1099.18L1525.39,1099.03L1525.48,1098.72L1525.55,1098.45L1525.59,1098.31L1525.62,1098.2L1525.67,1098.02L1525.79,1097.58L1525.83,1097.43L1525.84,1097.39C1525.92,1097.12 1526,1096.85 1526.07,1096.58L1526.08,1096.56L1526.1,1096.49L1526.27,1095.91L1526.3,1095.78L1526.33,1095.69L1526.37,1095.54L1526.47,1095.21L1526.54,1094.96L1526.58,1094.82L1526.61,1094.71L1526.67,1094.51L1526.79,1094.1L1526.84,1093.96L1526.85,1093.9C1526.93,1093.63 1527.01,1093.36 1527.1,1093.09L1527.1,1093.09L1527.1,1093.09L1527.3,1092.41L1527.34,1092.29L1527.36,1092.22L1527.4,1092.08L1527.51,1091.72L1527.59,1091.49L1527.62,1091.36L1527.66,1091.24L1527.73,1091.02L1527.85,1090.64L1527.89,1090.5L1527.91,1090.44C1528.08,1089.9 1528.25,1089.37 1528.42,1088.84L1528.44,1088.78L1528.49,1088.64L1528.61,1088.25L1528.68,1088.04L1528.72,1087.92L1528.76,1087.8L1528.84,1087.56L1528.95,1087.21L1529,1087.07L1529.02,1087L1529.06,1086.87L1529.28,1086.22L1529.28,1086.21L1529.28,1086.21C1529.38,1085.94 1529.47,1085.67 1529.56,1085.4L1529.57,1085.36L1529.61,1085.23L1529.76,1084.8L1529.83,1084.61L1529.86,1084.5L1529.91,1084.38L1530,1084.12L1530.11,1083.79L1530.16,1083.65L1530.18,1083.58L1530.23,1083.43L1530.44,1082.86L1530.45,1082.8L1530.46,1082.79C1530.55,1082.52 1530.65,1082.26 1530.74,1081.99L1530.75,1081.96L1530.79,1081.85L1530.96,1081.38L1531.03,1081.2L1531.06,1081.11L1531.1,1080.99L1531.21,1080.7L1531.32,1080.39L1531.37,1080.27L1531.39,1080.18L1531.45,1080.02L1531.65,1079.5L1531.67,1079.42L1531.68,1079.4C1531.78,1079.13 1531.88,1078.87 1531.98,1078.6L1531.99,1078.58L1532.01,1078.51L1532.21,1077.98L1532.28,1077.82L1532.3,1077.74L1532.35,1077.62L1532.47,1077.31L1532.58,1077.02L1532.62,1076.9L1532.65,1076.82L1532.73,1076.63L1532.91,1076.15L1532.94,1076.06L1532.95,1076.04C1533.06,1075.77 1533.16,1075.5 1533.27,1075.23L1533.27,1075.23L1533.28,1075.22L1533.51,1074.61L1533.57,1074.46L1533.6,1074.39L1533.64,1074.28L1533.78,1073.94L1533.89,1073.67L1533.93,1073.56L1533.96,1073.47L1534.05,1073.27L1534.23,1072.82L1534.26,1072.73L1534.28,1072.7C1534.49,1072.17 1534.7,1071.65 1534.92,1071.12L1534.94,1071.07L1534.99,1070.97L1535.14,1070.59L1535.25,1070.34L1535.29,1070.25L1535.32,1070.16L1535.42,1069.93L1535.59,1069.51L1535.63,1069.42L1535.65,1069.38C1535.87,1068.86 1536.09,1068.34 1536.32,1067.81L1536.33,1067.78L1536.37,1067.69L1536.55,1067.28L1536.65,1067.04L1536.69,1066.96L1536.73,1066.87L1536.84,1066.62L1537.01,1066.23L1537.05,1066.14L1537.07,1066.1C1537.3,1065.57 1537.53,1065.05 1537.77,1064.53L1537.77,1064.51L1537.8,1064.44L1538.01,1063.99L1538.11,1063.76L1538.14,1063.69L1538.18,1063.61L1538.31,1063.33L1538.48,1062.96L1538.51,1062.88L1538.53,1062.84C1538.77,1062.31 1539.02,1061.79 1539.26,1061.27L1539.26,1061.26L1539.28,1061.24L1539.52,1060.72L1539.62,1060.51L1539.64,1060.45L1539.68,1060.38L1539.82,1060.07L1539.99,1059.72L1540.02,1059.65L1540.05,1059.6C1540.42,1058.83 1540.79,1058.06 1541.17,1057.29L1541.19,1057.24L1541.22,1057.18L1541.39,1056.84L1541.55,1056.51L1541.58,1056.44L1541.61,1056.4C1541.99,1055.63 1542.38,1054.86 1542.77,1054.09L1542.78,1054.06L1542.81,1054.01L1543,1053.63L1543.16,1053.32L1543.19,1053.27L1543.21,1053.22C1543.61,1052.45 1544.01,1051.68 1544.41,1050.92L1544.42,1050.9L1544.44,1050.87L1544.66,1050.45L1544.82,1050.16L1544.84,1050.12L1544.86,1050.08C1584.74,975.415 1663.45,924.561 1753.94,924.561C1884.67,924.561 1990.8,1030.7 1990.8,1161.42C1990.8,1169.45 1990.4,1177.38 1989.62,1185.2L1901.06,1185.2L1606.82,1185.2ZM1889.57,1099.67C1866.08,1048.21 1814.16,1012.41 1753.94,1012.41C1693.72,1012.41 1641.79,1048.21 1618.3,1099.67L1889.57,1099.67Z" style="fill:rgb(0,248,200);"/>
        </g>
        <g transform="matrix(1,0,0,1,-42.2152,229.739)">
            <path d="M2755.44,1366.56C2714.39,1400.71 2661.62,1421.26 2604.1,1421.26C2473.37,1421.26 2367.24,1315.12 2367.24,1184.39C2367.24,1053.66 2473.37,947.53 2604.1,947.53C2734.83,947.53 2840.97,1053.66 2840.97,1184.39L2840.97,1636.54C2840.97,1767.27 2734.83,1873.41 2604.1,1873.41C2473.37,1873.41 2367.24,1767.27 2367.24,1636.54L2455.09,1636.54C2455.09,1718.79 2521.86,1785.56 2604.1,1785.56C2686.34,1785.56 2753.11,1718.79 2753.11,1636.54L2755.44,1636.54L2755.44,1366.56ZM2604.1,1035.38C2686.34,1035.38 2753.11,1102.15 2753.11,1184.39C2753.11,1266.64 2686.34,1333.41 2604.1,1333.41C2521.86,1333.41 2455.09,1266.64 2455.09,1184.39C2455.09,1102.15 2521.86,1035.38 2604.1,1035.38Z" style="fill:rgb(0,248,200);"/>
        </g>
    </g>
</svg>
